<svg xmlns="http://www.w3.org/2000/svg"  viewBox="0 0 50 50" width="50px" height="50px"><path d="M 28.875 0 C 28.855469 0.0078125 28.832031 0.0195313 28.8125 0.03125 L 0.8125 5.34375 C 0.335938 5.433594 -0.0078125 5.855469 0 6.34375 L 0 43.65625 C -0.0078125 44.144531 0.335938 44.566406 0.8125 44.65625 L 28.8125 49.96875 C 29.101563 50.023438 29.402344 49.949219 29.632813 49.761719 C 29.859375 49.574219 29.996094 49.296875 30 49 L 30 38 L 34.0625 38 C 34.019531 38.332031 34 38.660156 34 39 C 34 43.40625 37.59375 47 42 47 C 46.40625 47 50 43.40625 50 39 C 50 37.609375 49.628906 36.296875 49 35.15625 C 49.003906 35.105469 49.003906 35.050781 49 35 L 49 17.65625 C 49.082031 17.433594 49.082031 17.191406 49 16.96875 L 49 12 C 49 11.449219 48.550781 11 48 11 L 30 11 L 30 1 C 30.003906 0.710938 29.878906 0.4375 29.664063 0.246094 C 29.449219 0.0546875 29.160156 -0.0351563 28.875 0 Z M 28 2.1875 L 28 11.6875 C 27.941406 11.882813 27.941406 12.085938 28 12.28125 L 28 36.6875 C 27.941406 36.882813 27.941406 37.085938 28 37.28125 L 28 47.8125 L 2 42.84375 L 2 7.15625 Z M 30 13 L 47 13 L 47 16.78125 L 33.75 24.625 L 30 21.53125 Z M 14.84375 15.53125 C 12.324219 15.53125 10.308594 16.40625 8.78125 18.1875 C 7.253906 19.96875 6.5 22.304688 6.5 25.1875 C 6.5 27.917969 7.246094 30.144531 8.75 31.84375 C 10.253906 33.542969 12.207031 34.40625 14.59375 34.40625 C 17.042969 34.40625 19.007813 33.503906 20.53125 31.75 C 22.054688 29.992188 22.8125 27.679688 22.8125 24.8125 C 22.8125 22.023438 22.09375 19.800781 20.625 18.09375 C 19.15625 16.390625 17.222656 15.53125 14.84375 15.53125 Z M 14.75 19.0625 C 16.027344 19.0625 17.042969 19.605469 17.78125 20.65625 C 18.519531 21.707031 18.875 23.171875 18.875 25.0625 C 18.875 26.878906 18.476563 28.292969 17.71875 29.3125 C 16.957031 30.335938 15.949219 30.84375 14.65625 30.84375 C 13.398438 30.84375 12.371094 30.332031 11.59375 29.28125 C 10.820313 28.230469 10.4375 26.773438 10.4375 24.96875 C 10.4375 23.1875 10.816406 21.769531 11.59375 20.6875 C 12.367188 19.605469 13.433594 19.0625 14.75 19.0625 Z M 47 19.125 L 47 32.78125 C 45.628906 31.679688 43.886719 31 42 31 C 38.660156 31 35.789063 33.082031 34.59375 36 L 30 36 L 30 24.09375 L 33.03125 26.59375 C 33.355469 26.867188 33.820313 26.90625 34.1875 26.6875 Z M 42 33 C 45.324219 33 48 35.675781 48 39 C 48 42.324219 45.324219 45 42 45 C 38.675781 45 36 42.324219 36 39 C 36 35.675781 38.675781 33 42 33 Z M 41 34 L 41 41 L 46 41 L 46 39 L 43 39 L 43 34 Z"/></svg>